{"asset":{"version":"2.0","generator":"Blockbench 4.10.4 glTF exporter"},"scenes":[{"nodes":[1],"name":"blockbench_export"}],"scene":0,"nodes":[{"name":"cylinder","mesh":0},{"children":[0]}],"bufferViews":[{"buffer":0,"byteOffset":0,"byteLength":9840,"target":34962,"byteStride":12},{"buffer":0,"byteOffset":9840,"byteLength":9840,"target":34962,"byteStride":12},{"buffer":0,"byteOffset":19680,"byteLength":6560,"target":34962,"byteStride":8},{"buffer":0,"byteOffset":26240,"byteLength":1584,"target":34963},{"buffer":0,"byteOffset":27824,"byteLength":720,"target":34963}],"buffers":[{"byteLength":28544,"uri":"data:application/octet-stream;base64,"}],"accessors":[{"bufferView":0,"componentType":5126,"count":820,"max":[0.3125,1.125,0.3125],"min":[-0.34150636196136475,0,-0.3125],"type":"VEC3"},{"bufferView":1,"componentType":5126,"count":820,"max":[1,1,1],"min":[-1,-1,-1],"type":"VEC3"},{"bufferView":2,"componentType":5126,"count":820,"max":[0.90625,0.9375],"min":[0,0],"type":"VEC2"},{"bufferView":3,"componentType":5123,"count":792,"max":[551],"min":[0],"type":"SCALAR"},{"bufferView":4,"componentType":5123,"count":360,"max":[819],"min":[552],"type":"SCALAR"}],"materials":[{"pbrMetallicRoughness":{"metallicFactor":0,"roughnessFactor":1,"baseColorTexture":{"index":0}},"alphaMode":"MASK","alphaCutoff":0.05,"doubleSided":true},{"pbrMetallicRoughness":{"metallicFactor":0,"roughnessFactor":1,"baseColorTexture":{"index":1}},"alphaMode":"MASK","alphaCutoff":0.05,"doubleSided":true}],"textures":[{"sampler":0,"source":0,"name":"log.png"},{"sampler":1,"source":1,"name":"leaves.png"}],"samplers":[{"magFilter":9728,"minFilter":9728,"wrapS":33071,"wrapT":33071},{"magFilter":9728,"minFilter":9728,"wrapS":33071,"wrapT":33071}],"images":[{"mimeType":"image/png","uri":"data:image/png;base64,"},{"mimeType":"image/png","uri":"data:image/png;base64,"}],"meshes":[{"primitives":[{"mode":4,"attributes":{"POSITION":0,"NORMAL":1,"TEXCOORD_0":2},"indices":3,"material":0},{"mode":4,"attributes":{"POSITION":0,"NORMAL":1,"TEXCOORD_0":2},"indices":4,"material":1}]}]}