{"asset":{"version":"2.0","generator":"Blockbench 4.11.1 glTF exporter"},"scenes":[{"nodes":[21],"name":"blockbench_export"}],"scene":0,"nodes":[{"translation":[2,0.125,-2.0625],"name":"big1","mesh":0},{"translation":[1,0.125,0],"name":"big2","mesh":1},{"translation":[-1,0.125,1.0625],"name":"big3","mesh":2},{"translation":[-1.8125,0.125,0.25],"name":"big4","mesh":3},{"translation":[1.5,0.125,1.9375],"name":"big5","mesh":4},{"translation":[-1.1875,0.125,-2.1875],"name":"big6","mesh":5},{"translation":[-0.25,0.125,-1.25],"name":"big7","mesh":6},{"translation":[0.1875,0.125,1.75],"name":"big8","mesh":7},{"translation":[2.0625,0.125,0.5625],"name":"big9","mesh":8},{"translation":[-0.375,0.0625,0],"name":"little1","mesh":9},{"translation":[-1.625,0.0625,-1.125],"name":"little2","mesh":10},{"translation":[-1.125,0.0625,-0.625],"name":"little3","mesh":11},{"translation":[1,0.0625,-1.4375],"name":"little4","mesh":12},{"translation":[1.8125,0.0625,-0.8125],"name":"little5","mesh":13},{"translation":[1.8125,0.0625,1.3125],"name":"little6","mesh":14},{"translation":[-1.875,0.0625,1.8125],"name":"little7","mesh":15},{"translation":[-2.1875,0.0625,-2.1875],"name":"little8","mesh":16},{"translation":[-2.1875,0.0625,-1.375],"name":"little9","mesh":17},{"translation":[0.5625,0.0625,1.0625],"name":"little10","mesh":18},{"translation":[0.1875,0.0625,-2.25],"name":"little11","mesh":19},{"translation":[-0.5,0.0625,2.25],"name":"little12","mesh":20},{"children":[0,1,2,3,4,5,6,7,8,9,10,11,12,13,14,15,16,17,18,19,20]}],"bufferViews":[{"buffer":0,"byteOffset":0,"byteLength":3312,"target":34962,"byteStride":12},{"buffer":0,"byteOffset":3312,"byteLength":3312,"target":34962,"byteStride":12},{"buffer":0,"byteOffset":6624,"byteLength":2208,"target":34962,"byteStride":8},{"buffer":0,"byteOffset":8832,"byteLength":720,"target":34963},{"buffer":0,"byteOffset":9552,"byteLength":3312,"target":34962,"byteStride":12},{"buffer":0,"byteOffset":12864,"byteLength":3312,"target":34962,"byteStride":12},{"buffer":0,"byteOffset":16176,"byteLength":2208,"target":34962,"byteStride":8},{"buffer":0,"byteOffset":18384,"byteLength":720,"target":34963},{"buffer":0,"byteOffset":19104,"byteLength":3312,"target":34962,"byteStride":12},{"buffer":0,"byteOffset":22416,"byteLength":3312,"target":34962,"byteStride":12},{"buffer":0,"byteOffset":25728,"byteLength":2208,"target":34962,"byteStride":8},{"buffer":0,"byteOffset":27936,"byteLength":720,"target":34963},{"buffer":0,"byteOffset":28656,"byteLength":3312,"target":34962,"byteStride":12},{"buffer":0,"byteOffset":31968,"byteLength":3312,"target":34962,"byteStride":12},{"buffer":0,"byteOffset":35280,"byteLength":2208,"target":34962,"byteStride":8},{"buffer":0,"byteOffset":37488,"byteLength":720,"target":34963},{"buffer":0,"byteOffset":38208,"byteLength":3312,"target":34962,"byteStride":12},{"buffer":0,"byteOffset":41520,"byteLength":3312,"target":34962,"byteStride":12},{"buffer":0,"byteOffset":44832,"byteLength":2208,"target":34962,"byteStride":8},{"buffer":0,"byteOffset":47040,"byteLength":720,"target":34963},{"buffer":0,"byteOffset":47760,"byteLength":3312,"target":34962,"byteStride":12},{"buffer":0,"byteOffset":51072,"byteLength":3312,"target":34962,"byteStride":12},{"buffer":0,"byteOffset":54384,"byteLength":2208,"target":34962,"byteStride":8},{"buffer":0,"byteOffset":56592,"byteLength":720,"target":34963},{"buffer":0,"byteOffset":57312,"byteLength":3312,"target":34962,"byteStride":12},{"buffer":0,"byteOffset":60624,"byteLength":3312,"target":34962,"byteStride":12},{"buffer":0,"byteOffset":63936,"byteLength":2208,"target":34962,"byteStride":8},{"buffer":0,"byteOffset":66144,"byteLength":720,"target":34963},{"buffer":0,"byteOffset":66864,"byteLength":3312,"target":34962,"byteStride":12},{"buffer":0,"byteOffset":70176,"byteLength":3312,"target":34962,"byteStride":12},{"buffer":0,"byteOffset":73488,"byteLength":2208,"target":34962,"byteStride":8},{"buffer":0,"byteOffset":75696,"byteLength":720,"target":34963},{"buffer":0,"byteOffset":76416,"byteLength":3312,"target":34962,"byteStride":12},{"buffer":0,"byteOffset":79728,"byteLength":3312,"target":34962,"byteStride":12},{"buffer":0,"byteOffset":83040,"byteLength":2208,"target":34962,"byteStride":8},{"buffer":0,"byteOffset":85248,"byteLength":720,"target":34963},{"buffer":0,"byteOffset":85968,"byteLength":3288,"target":34962,"byteStride":12},{"buffer":0,"byteOffset":89256,"byteLength":3288,"target":34962,"byteStride":12},{"buffer":0,"byteOffset":92544,"byteLength":2192,"target":34962,"byteStride":8},{"buffer":0,"byteOffset":94736,"byteLength":720,"target":34963},{"buffer":0,"byteOffset":95456,"byteLength":3288,"target":34962,"byteStride":12},{"buffer":0,"byteOffset":98744,"byteLength":3288,"target":34962,"byteStride":12},{"buffer":0,"byteOffset":102032,"byteLength":2192,"target":34962,"byteStride":8},{"buffer":0,"byteOffset":104224,"byteLength":720,"target":34963},{"buffer":0,"byteOffset":104944,"byteLength":3288,"target":34962,"byteStride":12},{"buffer":0,"byteOffset":108232,"byteLength":3288,"target":34962,"byteStride":12},{"buffer":0,"byteOffset":111520,"byteLength":2192,"target":34962,"byteStride":8},{"buffer":0,"byteOffset":113712,"byteLength":720,"target":34963},{"buffer":0,"byteOffset":114432,"byteLength":3288,"target":34962,"byteStride":12},{"buffer":0,"byteOffset":117720,"byteLength":3288,"target":34962,"byteStride":12},{"buffer":0,"byteOffset":121008,"byteLength":2192,"target":34962,"byteStride":8},{"buffer":0,"byteOffset":123200,"byteLength":720,"target":34963},{"buffer":0,"byteOffset":123920,"byteLength":3288,"target":34962,"byteStride":12},{"buffer":0,"byteOffset":127208,"byteLength":3288,"target":34962,"byteStride":12},{"buffer":0,"byteOffset":130496,"byteLength":2192,"target":34962,"byteStride":8},{"buffer":0,"byteOffset":132688,"byteLength":720,"target":34963},{"buffer":0,"byteOffset":133408,"byteLength":3288,"target":34962,"byteStride":12},{"buffer":0,"byteOffset":136696,"byteLength":3288,"target":34962,"byteStride":12},{"buffer":0,"byteOffset":139984,"byteLength":2192,"target":34962,"byteStride":8},{"buffer":0,"byteOffset":142176,"byteLength":720,"target":34963},{"buffer":0,"byteOffset":142896,"byteLength":3288,"target":34962,"byteStride":12},{"buffer":0,"byteOffset":146184,"byteLength":3288,"target":34962,"byteStride":12},{"buffer":0,"byteOffset":149472,"byteLength":2192,"target":34962,"byteStride":8},{"buffer":0,"byteOffset":151664,"byteLength":720,"target":34963},{"buffer":0,"byteOffset":152384,"byteLength":3288,"target":34962,"byteStride":12},{"buffer":0,"byteOffset":155672,"byteLength":3288,"target":34962,"byteStride":12},{"buffer":0,"byteOffset":158960,"byteLength":2192,"target":34962,"byteStride":8},{"buffer":0,"byteOffset":161152,"byteLength":720,"target":34963},{"buffer":0,"byteOffset":161872,"byteLength":3288,"target":34962,"byteStride":12},{"buffer":0,"byteOffset":165160,"byteLength":3288,"target":34962,"byteStride":12},{"buffer":0,"byteOffset":168448,"byteLength":2192,"target":34962,"byteStride":8},{"buffer":0,"byteOffset":170640,"byteLength":720,"target":34963},{"buffer":0,"byteOffset":171360,"byteLength":3288,"target":34962,"byteStride":12},{"buffer":0,"byteOffset":174648,"byteLength":3288,"target":34962,"byteStride":12},{"buffer":0,"byteOffset":177936,"byteLength":2192,"target":34962,"byteStride":8},{"buffer":0,"byteOffset":180128,"byteLength":720,"target":34963},{"buffer":0,"byteOffset":180848,"byteLength":3288,"target":34962,"byteStride":12},{"buffer":0,"byteOffset":184136,"byteLength":3288,"target":34962,"byteStride":12},{"buffer":0,"byteOffset":187424,"byteLength":2192,"target":34962,"byteStride":8},{"buffer":0,"byteOffset":189616,"byteLength":720,"target":34963},{"buffer":0,"byteOffset":190336,"byteLength":3288,"target":34962,"byteStride":12},{"buffer":0,"byteOffset":193624,"byteLength":3288,"target":34962,"byteStride":12},{"buffer":0,"byteOffset":196912,"byteLength":2192,"target":34962,"byteStride":8},{"buffer":0,"byteOffset":199104,"byteLength":720,"target":34963}],"buffers":[{"byteLength":199824,"uri":"data:application/octet-stream;base64,"}],"accessors":[{"bufferView":0,"componentType":5126,"count":276,"max":[0.27900636196136475,0.375,0.27900636196136475],"min":[-0.3125,-0.25,-0.3125],"type":"VEC3"},{"bufferView":1,"componentType":5126,"count":276,"max":[0.9950832724571228,0.7192546129226685,0.9911444187164307],"min":[-0.9335458874702454,-0.9659258127212524,-0.9943052530288696],"type":"VEC3"},{"bufferView":2,"componentType":5126,"count":276,"max":[0.78125,0.8771779537200928],"min":[0,0],"type":"VEC2"},{"bufferView":3,"componentType":5123,"count":360,"max":[275],"min":[0],"type":"SCALAR"},{"bufferView":4,"componentType":5126,"count":276,"max":[0.27900636196136475,0.375,0.27900636196136475],"min":[-0.3125,-0.25,-0.3125],"type":"VEC3"},{"bufferView":5,"componentType":5126,"count":276,"max":[0.9950832724571228,0.7192546129226685,0.9911444187164307],"min":[-0.9335458874702454,-0.9659258127212524,-0.9943052530288696],"type":"VEC3"},{"bufferView":6,"componentType":5126,"count":276,"max":[0.8515625,0.8671875],"min":[0,0.05212324857711792],"type":"VEC2"},{"bufferView":7,"componentType":5123,"count":360,"max":[275],"min":[0],"type":"SCALAR"},{"bufferView":8,"componentType":5126,"count":276,"max":[0.27900636196136475,0.375,0.27900636196136475],"min":[-0.3125,-0.25,-0.3125],"type":"VEC3"},{"bufferView":9,"componentType":5126,"count":276,"max":[0.9950832724571228,0.7192546129226685,0.9911444187164307],"min":[-0.9335458874702454,-0.9659258127212524,-0.9943052530288696],"type":"VEC3"},{"bufferView":10,"componentType":5126,"count":276,"max":[0.859375,0.875],"min":[0,0],"type":"VEC2"},{"bufferView":11,"componentType":5123,"count":360,"max":[275],"min":[0],"type":"SCALAR"},{"bufferView":12,"componentType":5126,"count":276,"max":[0.27900636196136475,0.375,0.27900636196136475],"min":[-0.3125,-0.25,-0.3125],"type":"VEC3"},{"bufferView":13,"componentType":5126,"count":276,"max":[0.9950832724571228,0.7192546129226685,0.9911444187164307],"min":[-0.9335458874702454,-0.9659258127212524,-0.9943052530288696],"type":"VEC3"},{"bufferView":14,"componentType":5126,"count":276,"max":[0.859375,0.875],"min":[0,0],"type":"VEC2"},{"bufferView":15,"componentType":5123,"count":360,"max":[275],"min":[0],"type":"SCALAR"},{"bufferView":16,"componentType":5126,"count":276,"max":[0.27900636196136475,0.375,0.27900636196136475],"min":[-0.3125,-0.25,-0.3125],"type":"VEC3"},{"bufferView":17,"componentType":5126,"count":276,"max":[0.9950832724571228,0.7192546129226685,0.9911444187164307],"min":[-0.9335458874702454,-0.9659258127212524,-0.9943052530288696],"type":"VEC3"},{"bufferView":18,"componentType":5126,"count":276,"max":[0.859375,0.875],"min":[0.0023543916177004576,0.006309151649475098],"type":"VEC2"},{"bufferView":19,"componentType":5123,"count":360,"max":[275],"min":[0],"type":"SCALAR"},{"bufferView":20,"componentType":5126,"count":276,"max":[0.27900636196136475,0.375,0.27900636196136475],"min":[-0.3125,-0.25,-0.3125],"type":"VEC3"},{"bufferView":21,"componentType":5126,"count":276,"max":[0.9950832724571228,0.7192546129226685,0.9911444187164307],"min":[-0.9335458874702454,-0.9659258127212524,-0.9943052530288696],"type":"VEC3"},{"bufferView":22,"componentType":5126,"count":276,"max":[0.859375,0.875],"min":[0.003826579311862588,0.005079209804534912],"type":"VEC2"},{"bufferView":23,"componentType":5123,"count":360,"max":[275],"min":[0],"type":"SCALAR"},{"bufferView":24,"componentType":5126,"count":276,"max":[0.27900636196136475,0.375,0.27900636196136475],"min":[-0.3125,-0.25,-0.3125],"type":"VEC3"},{"bufferView":25,"componentType":5126,"count":276,"max":[0.9950832724571228,0.7192546129226685,0.9911444187164307],"min":[-0.9335458874702454,-0.9659258127212524,-0.9943052530288696],"type":"VEC3"},{"bufferView":26,"componentType":5126,"count":276,"max":[0.859375,0.8678770065307617],"min":[0.046875,0.0024973154067993164],"type":"VEC2"},{"bufferView":27,"componentType":5123,"count":360,"max":[275],"min":[0],"type":"SCALAR"},{"bufferView":28,"componentType":5126,"count":276,"max":[0.27900636196136475,0.375,0.27900636196136475],"min":[-0.3125,-0.25,-0.3125],"type":"VEC3"},{"bufferView":29,"componentType":5126,"count":276,"max":[0.9950832724571228,0.7192546129226685,0.9911444187164307],"min":[-0.9335458874702454,-0.9659258127212524,-0.9943052530288696],"type":"VEC3"},{"bufferView":30,"componentType":5126,"count":276,"max":[0.859375,0.8359375],"min":[0.002125631319358945,0.04263436794281006],"type":"VEC2"},{"bufferView":31,"componentType":5123,"count":360,"max":[275],"min":[0],"type":"SCALAR"},{"bufferView":32,"componentType":5126,"count":276,"max":[0.27900636196136475,0.375,0.27900636196136475],"min":[-0.3125,-0.25,-0.3125],"type":"VEC3"},{"bufferView":33,"componentType":5126,"count":276,"max":[0.9950832724571228,0.7192546129226685,0.9911444187164307],"min":[-0.9335458874702454,-0.9659258127212524,-0.9943052530288696],"type":"VEC3"},{"bufferView":34,"componentType":5126,"count":276,"max":[0.859375,0.875],"min":[0.0859375,0],"type":"VEC2"},{"bufferView":35,"componentType":5123,"count":360,"max":[275],"min":[0],"type":"SCALAR"},{"bufferView":36,"componentType":5126,"count":274,"max":[0.1875,0.1875,0.125],"min":[-0.1875,-0.125,-0.1875],"type":"VEC3"},{"bufferView":37,"componentType":5126,"count":274,"max":[0.9659258127212524,0.6684240698814392,0.8940450549125671],"min":[-0.8660253882408142,-0.9659258127212524,-0.9211083650588989],"type":"VEC3"},{"bufferView":38,"componentType":5126,"count":274,"max":[0.9159162640571594,0.8984375],"min":[0,0],"type":"VEC2"},{"bufferView":39,"componentType":5123,"count":360,"max":[273],"min":[0],"type":"SCALAR"},{"bufferView":40,"componentType":5126,"count":274,"max":[0.1875,0.1875,0.125],"min":[-0.1875,-0.125,-0.1875],"type":"VEC3"},{"bufferView":41,"componentType":5126,"count":274,"max":[0.9659258127212524,0.6684240698814392,0.8940450549125671],"min":[-0.8660253882408142,-0.9659258127212524,-0.9211083650588989],"type":"VEC3"},{"bufferView":42,"componentType":5126,"count":274,"max":[0.9159162640571594,0.921875],"min":[0,0],"type":"VEC2"},{"bufferView":43,"componentType":5123,"count":360,"max":[273],"min":[0],"type":"SCALAR"},{"bufferView":44,"componentType":5126,"count":274,"max":[0.1875,0.1875,0.125],"min":[-0.1875,-0.125,-0.1875],"type":"VEC3"},{"bufferView":45,"componentType":5126,"count":274,"max":[0.9659258127212524,0.6684240698814392,0.8940450549125671],"min":[-0.8660253882408142,-0.9659258127212524,-0.9211083650588989],"type":"VEC3"},{"bufferView":46,"componentType":5126,"count":274,"max":[0.9159162640571594,0.8984375],"min":[0.078125,0],"type":"VEC2"},{"bufferView":47,"componentType":5123,"count":360,"max":[273],"min":[0],"type":"SCALAR"},{"bufferView":48,"componentType":5126,"count":274,"max":[0.1875,0.1875,0.125],"min":[-0.1875,-0.125,-0.1875],"type":"VEC3"},{"bufferView":49,"componentType":5126,"count":274,"max":[0.9659258127212524,0.6684240698814392,0.8940450549125671],"min":[-0.8660253882408142,-0.9659258127212524,-0.9211083650588989],"type":"VEC3"},{"bufferView":50,"componentType":5126,"count":274,"max":[0.9159162640571594,0.921875],"min":[0.03125,0.078125],"type":"VEC2"},{"bufferView":51,"componentType":5123,"count":360,"max":[273],"min":[0],"type":"SCALAR"},{"bufferView":52,"componentType":5126,"count":274,"max":[0.1875,0.1875,0.125],"min":[-0.1875,-0.125,-0.1875],"type":"VEC3"},{"bufferView":53,"componentType":5126,"count":274,"max":[0.9659258127212524,0.6684240698814392,0.8940450549125671],"min":[-0.8660253882408142,-0.9659258127212524,-0.9211083650588989],"type":"VEC3"},{"bufferView":54,"componentType":5126,"count":274,"max":[0.9159162640571594,0.921875],"min":[0.046875,0.1875],"type":"VEC2"},{"bufferView":55,"componentType":5123,"count":360,"max":[273],"min":[0],"type":"SCALAR"},{"bufferView":56,"componentType":5126,"count":274,"max":[0.1875,0.1875,0.125],"min":[-0.1875,-0.125,-0.1875],"type":"VEC3"},{"bufferView":57,"componentType":5126,"count":274,"max":[0.9659258127212524,0.6684240698814392,0.8940450549125671],"min":[-0.8660253882408142,-0.9659258127212524,-0.9211083650588989],"type":"VEC3"},{"bufferView":58,"componentType":5126,"count":274,"max":[0.9159162640571594,0.921875],"min":[0,0.1484375],"type":"VEC2"},{"bufferView":59,"componentType":5123,"count":360,"max":[273],"min":[0],"type":"SCALAR"},{"bufferView":60,"componentType":5126,"count":274,"max":[0.1875,0.1875,0.125],"min":[-0.1875,-0.125,-0.1875],"type":"VEC3"},{"bufferView":61,"componentType":5126,"count":274,"max":[0.9659258127212524,0.6684240698814392,0.8940450549125671],"min":[-0.8660253882408142,-0.9659258127212524,-0.9211083650588989],"type":"VEC3"},{"bufferView":62,"componentType":5126,"count":274,"max":[0.9159162640571594,0.921875],"min":[0,0.08494043350219727],"type":"VEC2"},{"bufferView":63,"componentType":5123,"count":360,"max":[273],"min":[0],"type":"SCALAR"},{"bufferView":64,"componentType":5126,"count":274,"max":[0.1875,0.1875,0.125],"min":[-0.1875,-0.125,-0.1875],"type":"VEC3"},{"bufferView":65,"componentType":5126,"count":274,"max":[0.9659258127212524,0.6684240698814392,0.8940450549125671],"min":[-0.8660253882408142,-0.9659258127212524,-0.9211083650588989],"type":"VEC3"},{"bufferView":66,"componentType":5126,"count":274,"max":[0.9159162640571594,0.921875],"min":[0.003625781275331974,0],"type":"VEC2"},{"bufferView":67,"componentType":5123,"count":360,"max":[273],"min":[0],"type":"SCALAR"},{"bufferView":68,"componentType":5126,"count":274,"max":[0.1875,0.1875,0.125],"min":[-0.1875,-0.125,-0.1875],"type":"VEC3"},{"bufferView":69,"componentType":5126,"count":274,"max":[0.9659258127212524,0.6684240698814392,0.8940450549125671],"min":[-0.8660253882408142,-0.9659258127212524,-0.9211083650588989],"type":"VEC3"},{"bufferView":70,"componentType":5126,"count":274,"max":[0.9140625,0.921875],"min":[0.0016811592504382133,0],"type":"VEC2"},{"bufferView":71,"componentType":5123,"count":360,"max":[273],"min":[0],"type":"SCALAR"},{"bufferView":72,"componentType":5126,"count":274,"max":[0.1875,0.1875,0.125],"min":[-0.1875,-0.125,-0.1875],"type":"VEC3"},{"bufferView":73,"componentType":5126,"count":274,"max":[0.9659258127212524,0.6684240698814392,0.8940450549125671],"min":[-0.8660253882408142,-0.9659258127212524,-0.9211083650588989],"type":"VEC3"},{"bufferView":74,"componentType":5126,"count":274,"max":[0.9159162640571594,0.9140625],"min":[0.025118660181760788,0],"type":"VEC2"},{"bufferView":75,"componentType":5123,"count":360,"max":[273],"min":[0],"type":"SCALAR"},{"bufferView":76,"componentType":5126,"count":274,"max":[0.1875,0.1875,0.125],"min":[-0.1875,-0.125,-0.1875],"type":"VEC3"},{"bufferView":77,"componentType":5126,"count":274,"max":[0.9659258127212524,0.6684240698814392,0.8940450549125671],"min":[-0.8660253882408142,-0.9659258127212524,-0.9211083650588989],"type":"VEC3"},{"bufferView":78,"componentType":5126,"count":274,"max":[0.9159162640571594,0.921875],"min":[0.0739382803440094,0.015625],"type":"VEC2"},{"bufferView":79,"componentType":5123,"count":360,"max":[273],"min":[0],"type":"SCALAR"},{"bufferView":80,"componentType":5126,"count":274,"max":[0.1875,0.1875,0.125],"min":[-0.1875,-0.125,-0.1875],"type":"VEC3"},{"bufferView":81,"componentType":5126,"count":274,"max":[0.9659258127212524,0.6684240698814392,0.8940450549125671],"min":[-0.8660253882408142,-0.9659258127212524,-0.9211083650588989],"type":"VEC3"},{"bufferView":82,"componentType":5126,"count":274,"max":[0.9159162640571594,0.921875],"min":[0,0.03125],"type":"VEC2"},{"bufferView":83,"componentType":5123,"count":360,"max":[273],"min":[0],"type":"SCALAR"}],"materials":[{"pbrMetallicRoughness":{"metallicFactor":0,"roughnessFactor":1,"baseColorTexture":{"index":0}},"alphaMode":"MASK","alphaCutoff":0.05,"doubleSided":true}],"textures":[{"sampler":0,"source":0,"name":"foodSpot"}],"samplers":[{"magFilter":9728,"minFilter":9728,"wrapS":33071,"wrapT":33071}],"images":[{"mimeType":"image/png","uri":"data:image/png;base64,"}],"meshes":[{"primitives":[{"mode":4,"attributes":{"POSITION":0,"NORMAL":1,"TEXCOORD_0":2},"indices":3,"material":0}]},{"primitives":[{"mode":4,"attributes":{"POSITION":4,"NORMAL":5,"TEXCOORD_0":6},"indices":7,"material":0}]},{"primitives":[{"mode":4,"attributes":{"POSITION":8,"NORMAL":9,"TEXCOORD_0":10},"indices":11,"material":0}]},{"primitives":[{"mode":4,"attributes":{"POSITION":12,"NORMAL":13,"TEXCOORD_0":14},"indices":15,"material":0}]},{"primitives":[{"mode":4,"attributes":{"POSITION":16,"NORMAL":17,"TEXCOORD_0":18},"indices":19,"material":0}]},{"primitives":[{"mode":4,"attributes":{"POSITION":20,"NORMAL":21,"TEXCOORD_0":22},"indices":23,"material":0}]},{"primitives":[{"mode":4,"attributes":{"POSITION":24,"NORMAL":25,"TEXCOORD_0":26},"indices":27,"material":0}]},{"primitives":[{"mode":4,"attributes":{"POSITION":28,"NORMAL":29,"TEXCOORD_0":30},"indices":31,"material":0}]},{"primitives":[{"mode":4,"attributes":{"POSITION":32,"NORMAL":33,"TEXCOORD_0":34},"indices":35,"material":0}]},{"primitives":[{"mode":4,"attributes":{"POSITION":36,"NORMAL":37,"TEXCOORD_0":38},"indices":39,"material":0}]},{"primitives":[{"mode":4,"attributes":{"POSITION":40,"NORMAL":41,"TEXCOORD_0":42},"indices":43,"material":0}]},{"primitives":[{"mode":4,"attributes":{"POSITION":44,"NORMAL":45,"TEXCOORD_0":46},"indices":47,"material":0}]},{"primitives":[{"mode":4,"attributes":{"POSITION":48,"NORMAL":49,"TEXCOORD_0":50},"indices":51,"material":0}]},{"primitives":[{"mode":4,"attributes":{"POSITION":52,"NORMAL":53,"TEXCOORD_0":54},"indices":55,"material":0}]},{"primitives":[{"mode":4,"attributes":{"POSITION":56,"NORMAL":57,"TEXCOORD_0":58},"indices":59,"material":0}]},{"primitives":[{"mode":4,"attributes":{"POSITION":60,"NORMAL":61,"TEXCOORD_0":62},"indices":63,"material":0}]},{"primitives":[{"mode":4,"attributes":{"POSITION":64,"NORMAL":65,"TEXCOORD_0":66},"indices":67,"material":0}]},{"primitives":[{"mode":4,"attributes":{"POSITION":68,"NORMAL":69,"TEXCOORD_0":70},"indices":71,"material":0}]},{"primitives":[{"mode":4,"attributes":{"POSITION":72,"NORMAL":73,"TEXCOORD_0":74},"indices":75,"material":0}]},{"primitives":[{"mode":4,"attributes":{"POSITION":76,"NORMAL":77,"TEXCOORD_0":78},"indices":79,"material":0}]},{"primitives":[{"mode":4,"attributes":{"POSITION":80,"NORMAL":81,"TEXCOORD_0":82},"indices":83,"material":0}]}]}