{"asset":{"version":"2.0","generator":"Blockbench 4.11.1 glTF exporter"},"scenes":[{"nodes":[8],"name":"blockbench_export"}],"scene":0,"nodes":[{"translation":[0,0.5,0],"name":"sphere","mesh":0},{"translation":[1.5,0.25,1.375],"name":"sphere","mesh":1},{"rotation":[0,-0.49999999999999994,0,0.8660254037844387],"translation":[1.5,0.25,-1.625],"name":"sphere","mesh":2},{"rotation":[0,-0.8433914458128857,0,0.5372996083468239],"translation":[-1.6875,0.25,2.125],"name":"sphere","mesh":3},{"rotation":[0,0.9713420698132614,0,0.2376858923261731],"translation":[-1.25,0.25,0.5625],"name":"sphere","mesh":4},{"rotation":[0,0.6427876096865393,0,0.766044443118978],"translation":[-2.1875,0.25,-1.5625],"name":"sphere","mesh":5},{"rotation":[0,0.9762960071199334,0,0.21643961393810313],"translation":[-0.75,0.25,-1.375],"name":"sphere","mesh":6},{"rotation":[0,0.08715574274765817,0,0.9961946980917455],"translation":[1.1875,0.25,-0.8125],"name":"sphere","mesh":7},{"children":[0,1,2,3,4,5,6,7]}],"bufferViews":[{"buffer":0,"byteOffset":0,"byteLength":3240,"target":34962,"byteStride":12},{"buffer":0,"byteOffset":3240,"byteLength":3240,"target":34962,"byteStride":12},{"buffer":0,"byteOffset":6480,"byteLength":2160,"target":34962,"byteStride":8},{"buffer":0,"byteOffset":8640,"byteLength":720,"target":34963},{"buffer":0,"byteOffset":9360,"byteLength":3456,"target":34962,"byteStride":12},{"buffer":0,"byteOffset":12816,"byteLength":3456,"target":34962,"byteStride":12},{"buffer":0,"byteOffset":16272,"byteLength":2304,"target":34962,"byteStride":8},{"buffer":0,"byteOffset":18576,"byteLength":720,"target":34963},{"buffer":0,"byteOffset":19296,"byteLength":3456,"target":34962,"byteStride":12},{"buffer":0,"byteOffset":22752,"byteLength":3456,"target":34962,"byteStride":12},{"buffer":0,"byteOffset":26208,"byteLength":2304,"target":34962,"byteStride":8},{"buffer":0,"byteOffset":28512,"byteLength":720,"target":34963},{"buffer":0,"byteOffset":29232,"byteLength":3456,"target":34962,"byteStride":12},{"buffer":0,"byteOffset":32688,"byteLength":3456,"target":34962,"byteStride":12},{"buffer":0,"byteOffset":36144,"byteLength":2304,"target":34962,"byteStride":8},{"buffer":0,"byteOffset":38448,"byteLength":720,"target":34963},{"buffer":0,"byteOffset":39168,"byteLength":3456,"target":34962,"byteStride":12},{"buffer":0,"byteOffset":42624,"byteLength":3456,"target":34962,"byteStride":12},{"buffer":0,"byteOffset":46080,"byteLength":2304,"target":34962,"byteStride":8},{"buffer":0,"byteOffset":48384,"byteLength":720,"target":34963},{"buffer":0,"byteOffset":49104,"byteLength":3456,"target":34962,"byteStride":12},{"buffer":0,"byteOffset":52560,"byteLength":3456,"target":34962,"byteStride":12},{"buffer":0,"byteOffset":56016,"byteLength":2304,"target":34962,"byteStride":8},{"buffer":0,"byteOffset":58320,"byteLength":720,"target":34963},{"buffer":0,"byteOffset":59040,"byteLength":3456,"target":34962,"byteStride":12},{"buffer":0,"byteOffset":62496,"byteLength":3456,"target":34962,"byteStride":12},{"buffer":0,"byteOffset":65952,"byteLength":2304,"target":34962,"byteStride":8},{"buffer":0,"byteOffset":68256,"byteLength":720,"target":34963},{"buffer":0,"byteOffset":68976,"byteLength":3456,"target":34962,"byteStride":12},{"buffer":0,"byteOffset":72432,"byteLength":3456,"target":34962,"byteStride":12},{"buffer":0,"byteOffset":75888,"byteLength":2304,"target":34962,"byteStride":8},{"buffer":0,"byteOffset":78192,"byteLength":720,"target":34963}],"buffers":[{"byteLength":78912,"uri":"data:application/octet-stream;base64,"}],"accessors":[{"bufferView":0,"componentType":5126,"count":270,"max":[0.9375,1,1],"min":[-0.9620190262794495,-0.75,-1],"type":"VEC3"},{"bufferView":1,"componentType":5126,"count":270,"max":[0.9978418350219727,0.899074375629425,0.9400760531425476],"min":[-0.8926733732223511,-1,-0.9641625881195068],"type":"VEC3"},{"bufferView":2,"componentType":5126,"count":270,"max":[0.5580371022224426,0.5678651332855225],"min":[0,0],"type":"VEC2"},{"bufferView":3,"componentType":5123,"count":360,"max":[269],"min":[0],"type":"SCALAR"},{"bufferView":4,"componentType":5126,"count":288,"max":[0.34375,0.625,0.45813295245170593],"min":[-0.5625,-0.40625,-0.33313295245170593],"type":"VEC3"},{"bufferView":5,"componentType":5126,"count":288,"max":[0.9915174245834351,0.878244936466217,0.9858591556549072],"min":[-0.9616528153419495,-0.9729620814323425,-0.9913936853408813],"type":"VEC3"},{"bufferView":6,"componentType":5126,"count":288,"max":[0.6548013687133789,0.6394930481910706],"min":[0,0],"type":"VEC2"},{"bufferView":7,"componentType":5123,"count":360,"max":[287],"min":[0],"type":"SCALAR"},{"bufferView":8,"componentType":5126,"count":288,"max":[0.34375,0.625,0.45813295245170593],"min":[-0.5625,-0.40625,-0.33313295245170593],"type":"VEC3"},{"bufferView":9,"componentType":5126,"count":288,"max":[0.9915174245834351,0.878244936466217,0.9858591556549072],"min":[-0.9616528153419495,-0.9729620814323425,-0.9913936853408813],"type":"VEC3"},{"bufferView":10,"componentType":5126,"count":288,"max":[0.6548013687133789,0.6394930481910706],"min":[0,0],"type":"VEC2"},{"bufferView":11,"componentType":5123,"count":360,"max":[287],"min":[0],"type":"SCALAR"},{"bufferView":12,"componentType":5126,"count":288,"max":[0.34375,0.625,0.45813295245170593],"min":[-0.5625,-0.40625,-0.33313295245170593],"type":"VEC3"},{"bufferView":13,"componentType":5126,"count":288,"max":[0.9915174245834351,0.878244936466217,0.9858591556549072],"min":[-0.9616528153419495,-0.9729620814323425,-0.9913936853408813],"type":"VEC3"},{"bufferView":14,"componentType":5126,"count":288,"max":[0.6548013687133789,0.6394930481910706],"min":[0,0],"type":"VEC2"},{"bufferView":15,"componentType":5123,"count":360,"max":[287],"min":[0],"type":"SCALAR"},{"bufferView":16,"componentType":5126,"count":288,"max":[0.34375,0.625,0.45813295245170593],"min":[-0.5625,-0.40625,-0.33313295245170593],"type":"VEC3"},{"bufferView":17,"componentType":5126,"count":288,"max":[0.9915174245834351,0.878244936466217,0.9858591556549072],"min":[-0.9616528153419495,-0.9729620814323425,-0.9913936853408813],"type":"VEC3"},{"bufferView":18,"componentType":5126,"count":288,"max":[0.6548013687133789,0.6394930481910706],"min":[0,0],"type":"VEC2"},{"bufferView":19,"componentType":5123,"count":360,"max":[287],"min":[0],"type":"SCALAR"},{"bufferView":20,"componentType":5126,"count":288,"max":[0.34375,0.625,0.45813295245170593],"min":[-0.5625,-0.40625,-0.33313295245170593],"type":"VEC3"},{"bufferView":21,"componentType":5126,"count":288,"max":[0.9915174245834351,0.878244936466217,0.9858591556549072],"min":[-0.9616528153419495,-0.9729620814323425,-0.9913936853408813],"type":"VEC3"},{"bufferView":22,"componentType":5126,"count":288,"max":[0.6548013687133789,0.6394930481910706],"min":[0,0],"type":"VEC2"},{"bufferView":23,"componentType":5123,"count":360,"max":[287],"min":[0],"type":"SCALAR"},{"bufferView":24,"componentType":5126,"count":288,"max":[0.34375,0.625,0.45813295245170593],"min":[-0.5625,-0.40625,-0.33313295245170593],"type":"VEC3"},{"bufferView":25,"componentType":5126,"count":288,"max":[0.9915174245834351,0.878244936466217,0.9858591556549072],"min":[-0.9616528153419495,-0.9729620814323425,-0.9913936853408813],"type":"VEC3"},{"bufferView":26,"componentType":5126,"count":288,"max":[0.6548013687133789,0.6394930481910706],"min":[0,0],"type":"VEC2"},{"bufferView":27,"componentType":5123,"count":360,"max":[287],"min":[0],"type":"SCALAR"},{"bufferView":28,"componentType":5126,"count":288,"max":[0.34375,0.625,0.45813295245170593],"min":[-0.5625,-0.40625,-0.33313295245170593],"type":"VEC3"},{"bufferView":29,"componentType":5126,"count":288,"max":[0.9915174245834351,0.878244936466217,0.9858591556549072],"min":[-0.9616528153419495,-0.9729620814323425,-0.9913936853408813],"type":"VEC3"},{"bufferView":30,"componentType":5126,"count":288,"max":[0.6548013687133789,0.6394930481910706],"min":[0,0],"type":"VEC2"},{"bufferView":31,"componentType":5123,"count":360,"max":[287],"min":[0],"type":"SCALAR"}],"materials":[{"pbrMetallicRoughness":{"metallicFactor":0,"roughnessFactor":1,"baseColorTexture":{"index":0}},"alphaMode":"MASK","alphaCutoff":0.05,"doubleSided":true},{"pbrMetallicRoughness":{"metallicFactor":0,"roughnessFactor":1,"baseColorTexture":{"index":1}},"alphaMode":"MASK","alphaCutoff":0.05,"doubleSided":true},{"pbrMetallicRoughness":{"metallicFactor":0,"roughnessFactor":1,"baseColorTexture":{"index":2}},"alphaMode":"MASK","alphaCutoff":0.05,"doubleSided":true},{"pbrMetallicRoughness":{"metallicFactor":0,"roughnessFactor":1,"baseColorTexture":{"index":3}},"alphaMode":"MASK","alphaCutoff":0.05,"doubleSided":true},{"pbrMetallicRoughness":{"metallicFactor":0,"roughnessFactor":1,"baseColorTexture":{"index":4}},"alphaMode":"MASK","alphaCutoff":0.05,"doubleSided":true},{"pbrMetallicRoughness":{"metallicFactor":0,"roughnessFactor":1,"baseColorTexture":{"index":5}},"alphaMode":"MASK","alphaCutoff":0.05,"doubleSided":true},{"pbrMetallicRoughness":{"metallicFactor":0,"roughnessFactor":1,"baseColorTexture":{"index":6}},"alphaMode":"MASK","alphaCutoff":0.05,"doubleSided":true},{"pbrMetallicRoughness":{"metallicFactor":0,"roughnessFactor":1,"baseColorTexture":{"index":7}},"alphaMode":"MASK","alphaCutoff":0.05,"doubleSided":true}],"textures":[{"sampler":0,"source":0,"name":"texture"},{"sampler":1,"source":1,"name":"texture"},{"sampler":2,"source":2,"name":"texture"},{"sampler":3,"source":3,"name":"texture"},{"sampler":4,"source":4,"name":"texture"},{"sampler":5,"source":5,"name":"texture"},{"sampler":6,"source":6,"name":"texture"},{"sampler":7,"source":7,"name":"texture"}],"samplers":[{"magFilter":9728,"minFilter":9728,"wrapS":33071,"wrapT":33071},{"magFilter":9728,"minFilter":9728,"wrapS":33071,"wrapT":33071},{"magFilter":9728,"minFilter":9728,"wrapS":33071,"wrapT":33071},{"magFilter":9728,"minFilter":9728,"wrapS":33071,"wrapT":33071},{"magFilter":9728,"minFilter":9728,"wrapS":33071,"wrapT":33071},{"magFilter":9728,"minFilter":9728,"wrapS":33071,"wrapT":33071},{"magFilter":9728,"minFilter":9728,"wrapS":33071,"wrapT":33071},{"magFilter":9728,"minFilter":9728,"wrapS":33071,"wrapT":33071}],"images":[{"mimeType":"image/png","uri":"data:image/png;base64,"},{"mimeType":"image/png","uri":"data:image/png;base64,"},{"mimeType":"image/png","uri":"data:image/png;base64,"},{"mimeType":"image/png","uri":"data:image/png;base64,"},{"mimeType":"image/png","uri":"data:image/png;base64,"},{"mimeType":"image/png","uri":"data:image/png;base64,"},{"mimeType":"image/png","uri":"data:image/png;base64,"},{"mimeType":"image/png","uri":"data:image/png;base64,"}],"meshes":[{"primitives":[{"mode":4,"attributes":{"POSITION":0,"NORMAL":1,"TEXCOORD_0":2},"indices":3,"material":0}]},{"primitives":[{"mode":4,"attributes":{"POSITION":4,"NORMAL":5,"TEXCOORD_0":6},"indices":7,"material":1}]},{"primitives":[{"mode":4,"attributes":{"POSITION":8,"NORMAL":9,"TEXCOORD_0":10},"indices":11,"material":2}]},{"primitives":[{"mode":4,"attributes":{"POSITION":12,"NORMAL":13,"TEXCOORD_0":14},"indices":15,"material":3}]},{"primitives":[{"mode":4,"attributes":{"POSITION":16,"NORMAL":17,"TEXCOORD_0":18},"indices":19,"material":4}]},{"primitives":[{"mode":4,"attributes":{"POSITION":20,"NORMAL":21,"TEXCOORD_0":22},"indices":23,"material":5}]},{"primitives":[{"mode":4,"attributes":{"POSITION":24,"NORMAL":25,"TEXCOORD_0":26},"indices":27,"material":6}]},{"primitives":[{"mode":4,"attributes":{"POSITION":28,"NORMAL":29,"TEXCOORD_0":30},"indices":31,"material":7}]}]}